<svg width="258" height="62" viewBox="0 0 258 62" fill="none" xmlns="http://www.w3.org/2000/svg">
<g clip-path="url(#clip0_150_3203)">
<g clip-path="url(#clip1_150_3203)">
<g clip-path="url(#clip2_150_3203)">
<path d="M61.2664 17.4319L44.5681 0.733586C44.0983 0.263863 43.4614 0 42.7972 0H19.2028C18.5386 0 17.9015 0.263863 17.4318 0.733586L0.733586 17.4319C0.263863 17.9017 0 18.5387 0 19.2028V42.7972C0 43.4615 0.263863 44.0985 0.733586 44.5682L17.4319 61.2664C17.9017 61.7361 18.5387 62 19.2029 62H42.7972C43.4615 62 44.0985 61.7361 44.5683 61.2664L61.2665 44.5681C61.7363 44.0983 62.0001 43.4614 62.0001 42.7971V19.2028C62 18.5386 61.7361 17.9015 61.2664 17.4319ZM56.9911 41.7598L41.7598 56.9911H20.2403L5.00892 41.7598V20.2403L20.2403 5.00892H41.7598L56.9911 20.2402V41.7598Z" fill="#6153FF"/>
</g>
</g>
</g>
<path d="M17.636 15.1406H22.845L30.5149 37.0635L38.1848 15.1406H43.3938L32.6067 45H28.4231L17.636 15.1406ZM14.8264 15.1406H20.0149L20.9583 36.5098V45H14.8264V15.1406ZM41.0149 15.1406H46.2239V45H40.0716V36.5098L41.0149 15.1406Z" fill="#555555"/>
<path d="M78.6504 21.1938L71.4961 43H65.7329L75.5068 16.6953H79.1743L78.6504 21.1938ZM84.5942 43L77.4219 21.1938L76.8438 16.6953H80.5474L90.3755 43H84.5942ZM84.269 33.208V37.4536H70.376V33.208H84.269ZM92.8145 16.6953H102.625C104.636 16.6953 106.364 16.9964 107.81 17.5986C109.267 18.2008 110.387 19.0921 111.17 20.2725C111.953 21.4528 112.344 22.9041 112.344 24.6265C112.344 26.0356 112.103 27.2461 111.622 28.2578C111.152 29.2575 110.483 30.0946 109.616 30.769C108.761 31.4315 107.755 31.9614 106.599 32.3589L104.883 33.2622H96.3555L96.3193 29.0347H102.661C103.612 29.0347 104.401 28.866 105.027 28.5288C105.654 28.1916 106.123 27.7218 106.437 27.1196C106.762 26.5174 106.924 25.8188 106.924 25.0239C106.924 24.1808 106.768 23.4521 106.455 22.8379C106.141 22.2236 105.666 21.7539 105.027 21.4287C104.389 21.1035 103.588 20.9409 102.625 20.9409H98.2344V43H92.8145V16.6953ZM107.521 43L101.522 31.2749L107.25 31.2388L113.32 42.7471V43H107.521ZM121.938 16.6953V43H116.518V16.6953H121.938ZM137.691 16.6953L127.267 29.6851L121.251 36.1528L120.275 31.022L124.34 25.4575L131.043 16.6953H137.691ZM131.531 43L123.78 30.8413L127.791 27.481L137.944 43H131.531ZM157.691 38.7725V43H143.689V38.7725H157.691ZM145.46 16.6953V43H140.04V16.6953H145.46ZM155.866 27.4087V31.5278H143.689V27.4087H155.866ZM157.673 16.6953V20.9409H143.689V16.6953H157.673ZM172.975 16.6953V43H167.573V16.6953H172.975ZM181.069 16.6953V20.9409H159.606V16.6953H181.069ZM197.563 36.1167C197.563 35.647 197.491 35.2254 197.347 34.8521C197.214 34.4666 196.961 34.1174 196.588 33.8042C196.215 33.479 195.691 33.1598 195.016 32.8467C194.342 32.5335 193.468 32.2083 192.396 31.8711C191.204 31.4857 190.072 31.0521 189 30.5703C187.94 30.0885 187.001 29.5285 186.182 28.8901C185.375 28.2397 184.736 27.487 184.267 26.6318C183.809 25.7767 183.58 24.783 183.58 23.6509C183.58 22.5549 183.821 21.5612 184.303 20.6699C184.785 19.7666 185.459 18.9958 186.326 18.3574C187.193 17.707 188.217 17.2072 189.397 16.8579C190.59 16.5086 191.897 16.334 193.318 16.334C195.257 16.334 196.949 16.6833 198.395 17.3818C199.84 18.0804 200.96 19.0379 201.755 20.2544C202.562 21.4709 202.965 22.862 202.965 24.4277H197.582C197.582 23.6569 197.419 22.9824 197.094 22.4043C196.781 21.8141 196.299 21.3504 195.648 21.0132C195.01 20.6759 194.203 20.5073 193.228 20.5073C192.288 20.5073 191.505 20.6519 190.879 20.9409C190.253 21.2179 189.783 21.5973 189.47 22.0791C189.157 22.5488 189 23.0788 189 23.6689C189 24.1146 189.108 24.5181 189.325 24.8794C189.554 25.2407 189.891 25.578 190.337 25.8911C190.783 26.2043 191.331 26.4993 191.981 26.7764C192.631 27.0534 193.384 27.3244 194.239 27.5894C195.673 28.0229 196.931 28.5107 198.015 29.0527C199.111 29.5947 200.027 30.203 200.761 30.8774C201.496 31.5519 202.05 32.3167 202.423 33.1719C202.797 34.027 202.983 34.9966 202.983 36.0806C202.983 37.2248 202.761 38.2485 202.315 39.1519C201.869 40.0552 201.225 40.82 200.382 41.4463C199.539 42.0726 198.533 42.5483 197.365 42.8735C196.196 43.1987 194.89 43.3613 193.444 43.3613C192.144 43.3613 190.861 43.1927 189.596 42.8555C188.332 42.5062 187.181 41.9823 186.146 41.2837C185.122 40.5851 184.303 39.6938 183.688 38.6099C183.074 37.5259 182.767 36.2432 182.767 34.7617H188.205C188.205 35.5807 188.332 36.2733 188.584 36.8394C188.837 37.4054 189.193 37.8631 189.65 38.2124C190.12 38.5617 190.674 38.8146 191.312 38.9712C191.963 39.1278 192.674 39.2061 193.444 39.2061C194.384 39.2061 195.155 39.0736 195.757 38.8086C196.371 38.5436 196.823 38.1763 197.112 37.7065C197.413 37.2368 197.563 36.7069 197.563 36.1167ZM206.597 40.4888C206.597 39.7179 206.862 39.0736 207.392 38.5557C207.934 38.0378 208.65 37.7788 209.542 37.7788C210.433 37.7788 211.143 38.0378 211.673 38.5557C212.215 39.0736 212.486 39.7179 212.486 40.4888C212.486 41.2596 212.215 41.904 211.673 42.4219C211.143 42.9398 210.433 43.1987 209.542 43.1987C208.65 43.1987 207.934 42.9398 207.392 42.4219C206.862 41.904 206.597 41.2596 206.597 40.4888ZM229.162 16.6953V43H223.76V16.6953H229.162ZM237.255 16.6953V20.9409H215.792V16.6953H237.255ZM246.939 34.9243V16.6953H252.341V34.9243C252.341 36.6828 251.955 38.1943 251.185 39.459C250.414 40.7116 249.36 41.6751 248.023 42.3496C246.698 43.0241 245.205 43.3613 243.542 43.3613C241.82 43.3613 240.297 43.0723 238.972 42.4941C237.647 41.916 236.605 41.0308 235.846 39.8384C235.087 38.634 234.708 37.1104 234.708 35.2676H240.146C240.146 36.2311 240.278 36.9959 240.543 37.562C240.82 38.1281 241.212 38.5316 241.718 38.7725C242.224 39.0133 242.832 39.1338 243.542 39.1338C244.229 39.1338 244.825 38.9712 245.331 38.646C245.837 38.3208 246.228 37.8451 246.505 37.2188C246.794 36.5924 246.939 35.8276 246.939 34.9243Z" fill="#555555"/>
<path d="M73.1411 54.5V54.9688C73.1411 55.6133 73.0571 56.1914 72.8892 56.7031C72.7212 57.2148 72.481 57.6504 72.1685 58.0098C71.8599 58.3691 71.4888 58.6445 71.0552 58.8359C70.6216 59.0234 70.1411 59.1172 69.6138 59.1172C69.0903 59.1172 68.6118 59.0234 68.1782 58.8359C67.7485 58.6445 67.3755 58.3691 67.0591 58.0098C66.7427 57.6504 66.4966 57.2148 66.3208 56.7031C66.1489 56.1914 66.063 55.6133 66.063 54.9688V54.5C66.063 53.8555 66.1489 53.2793 66.3208 52.7715C66.4927 52.2598 66.7349 51.8242 67.0474 51.4648C67.3638 51.1016 67.7368 50.8262 68.1665 50.6387C68.6001 50.4473 69.0786 50.3516 69.6021 50.3516C70.1294 50.3516 70.6099 50.4473 71.0435 50.6387C71.4771 50.8262 71.8501 51.1016 72.1626 51.4648C72.4751 51.8242 72.7153 52.2598 72.8833 52.7715C73.0552 53.2793 73.1411 53.8555 73.1411 54.5ZM71.6704 54.9688V54.4883C71.6704 54.0117 71.6235 53.5918 71.5298 53.2285C71.4399 52.8613 71.3052 52.5547 71.1255 52.3086C70.9497 52.0586 70.7329 51.8711 70.4751 51.7461C70.2173 51.6172 69.9263 51.5527 69.6021 51.5527C69.2778 51.5527 68.9888 51.6172 68.7349 51.7461C68.481 51.8711 68.2642 52.0586 68.0845 52.3086C67.9087 52.5547 67.7739 52.8613 67.6802 53.2285C67.5864 53.5918 67.5396 54.0117 67.5396 54.4883V54.9688C67.5396 55.4453 67.5864 55.8672 67.6802 56.2344C67.7739 56.6016 67.9106 56.9121 68.0903 57.166C68.2739 57.416 68.4927 57.6055 68.7466 57.7344C69.0005 57.8594 69.2896 57.9219 69.6138 57.9219C69.9419 57.9219 70.2329 57.8594 70.4868 57.7344C70.7407 57.6055 70.9556 57.416 71.1313 57.166C71.3071 56.9121 71.4399 56.6016 71.5298 56.2344C71.6235 55.8672 71.6704 55.4453 71.6704 54.9688ZM78.8013 55.3086V56.4219H75.52V55.3086H78.8013ZM75.9302 52.6602V59H74.5181V52.6602H75.9302ZM79.8208 52.6602V59H78.4087V52.6602H79.8208ZM85.5864 52.6602V53.7852H82.4927V52.6602H85.5864ZM86.6938 52.6602V59H85.2817V52.6602H86.6938ZM82.147 52.6602H83.5415L83.3716 55.7949C83.3481 56.2598 83.3013 56.6699 83.231 57.0254C83.1646 57.377 83.0747 57.6797 82.9614 57.9336C82.8481 58.1836 82.7095 58.3867 82.5454 58.543C82.3813 58.6992 82.1899 58.8145 81.9712 58.8887C81.7524 58.9629 81.5063 59 81.2329 59H80.7935L80.7876 57.8398L81.0103 57.8223C81.1548 57.8105 81.2798 57.7734 81.3853 57.7109C81.4907 57.6445 81.5806 57.5508 81.6548 57.4297C81.7329 57.3086 81.7954 57.1523 81.8423 56.9609C81.8931 56.7695 81.9321 56.543 81.9595 56.2812C81.9907 56.0195 82.0142 55.7148 82.0298 55.3672L82.147 52.6602ZM91.7681 57.7285V54.7051C91.7681 54.4785 91.7271 54.2832 91.645 54.1191C91.563 53.9551 91.438 53.8281 91.27 53.7383C91.106 53.6484 90.8989 53.6035 90.6489 53.6035C90.4185 53.6035 90.2192 53.6426 90.0513 53.7207C89.8833 53.7988 89.7524 53.9043 89.6587 54.0371C89.5649 54.1699 89.5181 54.3203 89.5181 54.4883H88.1118C88.1118 54.2383 88.1724 53.9961 88.2935 53.7617C88.4146 53.5273 88.5903 53.3184 88.8208 53.1348C89.0513 52.9512 89.3267 52.8066 89.647 52.7012C89.9673 52.5957 90.3267 52.543 90.7251 52.543C91.2017 52.543 91.6235 52.623 91.9907 52.7832C92.3618 52.9434 92.6528 53.1855 92.8638 53.5098C93.0786 53.8301 93.186 54.2324 93.186 54.7168V57.5352C93.186 57.8242 93.2056 58.084 93.2446 58.3145C93.2876 58.541 93.3481 58.7383 93.4263 58.9062V59H91.979C91.9126 58.8477 91.8599 58.6543 91.8208 58.4199C91.7856 58.1816 91.7681 57.9512 91.7681 57.7285ZM91.9731 55.1445L91.9849 56.0176H90.9712C90.7095 56.0176 90.479 56.043 90.2798 56.0938C90.0806 56.1406 89.9146 56.2109 89.7817 56.3047C89.6489 56.3984 89.5493 56.5117 89.4829 56.6445C89.4165 56.7773 89.3833 56.9277 89.3833 57.0957C89.3833 57.2637 89.4224 57.418 89.5005 57.5586C89.5786 57.6953 89.6919 57.8027 89.8403 57.8809C89.9927 57.959 90.1763 57.998 90.3911 57.998C90.6802 57.998 90.9321 57.9395 91.147 57.8223C91.3657 57.7012 91.5376 57.5547 91.6626 57.3828C91.7876 57.207 91.854 57.041 91.8618 56.8848L92.3188 57.5117C92.272 57.6719 92.1919 57.8438 92.0786 58.0273C91.9653 58.2109 91.8169 58.3867 91.6333 58.5547C91.4536 58.7188 91.2368 58.8535 90.9829 58.959C90.7329 59.0645 90.4438 59.1172 90.1157 59.1172C89.7017 59.1172 89.3325 59.0352 89.0083 58.8711C88.6841 58.7031 88.4302 58.4785 88.2466 58.1973C88.063 57.9121 87.9712 57.5898 87.9712 57.2305C87.9712 56.8945 88.0337 56.5977 88.1587 56.3398C88.2876 56.0781 88.4751 55.8594 88.7212 55.6836C88.9712 55.5078 89.2759 55.375 89.6353 55.2852C89.9946 55.1914 90.4048 55.1445 90.8657 55.1445H91.9731ZM96.1216 56.9375L98.6118 52.6602H100.024V59H98.6118V54.7168L96.1216 59H94.7095V52.6602H96.1216V56.9375ZM98.2368 50.2227H99.2856C99.2856 50.5469 99.2075 50.834 99.0513 51.084C98.8989 51.3301 98.6802 51.5234 98.395 51.6641C98.1138 51.8047 97.7778 51.875 97.3872 51.875C96.7974 51.875 96.3306 51.7227 95.9868 51.418C95.647 51.1094 95.4771 50.7109 95.4771 50.2227H96.5259C96.5259 50.4414 96.5903 50.6348 96.7192 50.8027C96.8521 50.9668 97.0747 51.0488 97.3872 51.0488C97.6958 51.0488 97.9146 50.9668 98.0435 50.8027C98.1724 50.6348 98.2368 50.4414 98.2368 50.2227ZM105.848 55.3086V56.4219H102.567V55.3086H105.848ZM102.977 52.6602V59H101.565V52.6602H102.977ZM106.868 52.6602V59H105.456V52.6602H106.868ZM113.952 57.9922C114.182 57.9922 114.389 57.9473 114.573 57.8574C114.76 57.7637 114.911 57.6348 115.024 57.4707C115.141 57.3066 115.206 57.1172 115.217 56.9023H116.547C116.54 57.3125 116.418 57.6855 116.184 58.0215C115.95 58.3574 115.639 58.625 115.252 58.8242C114.866 59.0195 114.438 59.1172 113.969 59.1172C113.485 59.1172 113.063 59.0352 112.704 58.8711C112.344 58.7031 112.045 58.4727 111.807 58.1797C111.569 57.8867 111.389 57.5488 111.268 57.166C111.151 56.7832 111.092 56.373 111.092 55.9355V55.7305C111.092 55.293 111.151 54.8828 111.268 54.5C111.389 54.1133 111.569 53.7734 111.807 53.4805C112.045 53.1875 112.344 52.959 112.704 52.7949C113.063 52.627 113.483 52.543 113.963 52.543C114.471 52.543 114.917 52.6445 115.299 52.8477C115.682 53.0469 115.983 53.3262 116.202 53.6855C116.424 54.041 116.54 54.4551 116.547 54.9277H115.217C115.206 54.6934 115.147 54.4824 115.042 54.2949C114.94 54.1035 114.795 53.9512 114.608 53.8379C114.424 53.7246 114.204 53.668 113.946 53.668C113.661 53.668 113.424 53.7266 113.237 53.8438C113.049 53.957 112.903 54.1133 112.797 54.3125C112.692 54.5078 112.616 54.7285 112.569 54.9746C112.526 55.2168 112.504 55.4688 112.504 55.7305V55.9355C112.504 56.1973 112.526 56.4512 112.569 56.6973C112.612 56.9434 112.686 57.1641 112.792 57.3594C112.901 57.5508 113.049 57.7051 113.237 57.8223C113.424 57.9355 113.663 57.9922 113.952 57.9922ZM121.885 52.6602V53.7852H118.756V52.6602H121.885ZM119.09 52.6602V59H117.678V52.6602H119.09ZM122.993 52.6602V59H121.575V52.6602H122.993ZM125.905 53.8789V61.4375H124.493V52.6602H125.793L125.905 53.8789ZM130.036 55.7715V55.8945C130.036 56.3555 129.981 56.7832 129.872 57.1777C129.766 57.5684 129.608 57.9102 129.397 58.2031C129.19 58.4922 128.934 58.7168 128.629 58.877C128.325 59.0371 127.973 59.1172 127.575 59.1172C127.18 59.1172 126.834 59.0449 126.538 58.9004C126.245 58.752 125.997 58.543 125.793 58.2734C125.59 58.0039 125.426 57.6875 125.301 57.3242C125.18 56.957 125.094 56.5547 125.043 56.1172V55.6426C125.094 55.1777 125.18 54.7559 125.301 54.377C125.426 53.998 125.59 53.6719 125.793 53.3984C125.997 53.125 126.245 52.9141 126.538 52.7656C126.831 52.6172 127.172 52.543 127.563 52.543C127.961 52.543 128.315 52.6211 128.624 52.7773C128.932 52.9297 129.192 53.1484 129.403 53.4336C129.614 53.7148 129.772 54.0547 129.877 54.4531C129.983 54.8477 130.036 55.2871 130.036 55.7715ZM128.624 55.8945V55.7715C128.624 55.4785 128.596 55.207 128.542 54.957C128.487 54.7031 128.401 54.4805 128.284 54.2891C128.167 54.0977 128.016 53.9492 127.833 53.8438C127.653 53.7344 127.436 53.6797 127.182 53.6797C126.932 53.6797 126.717 53.7227 126.538 53.8086C126.358 53.8906 126.208 54.0059 126.086 54.1543C125.965 54.3027 125.872 54.4766 125.805 54.6758C125.739 54.8711 125.692 55.084 125.665 55.3145V56.4512C125.711 56.7324 125.792 56.9902 125.905 57.2246C126.018 57.459 126.178 57.6465 126.385 57.7871C126.596 57.9238 126.866 57.9922 127.194 57.9922C127.448 57.9922 127.665 57.9375 127.844 57.8281C128.024 57.7188 128.17 57.5684 128.284 57.377C128.401 57.1816 128.487 56.957 128.542 56.7031C128.596 56.4492 128.624 56.1797 128.624 55.8945ZM134.811 57.7285V54.7051C134.811 54.4785 134.77 54.2832 134.688 54.1191C134.606 53.9551 134.481 53.8281 134.313 53.7383C134.149 53.6484 133.942 53.6035 133.692 53.6035C133.461 53.6035 133.262 53.6426 133.094 53.7207C132.926 53.7988 132.795 53.9043 132.702 54.0371C132.608 54.1699 132.561 54.3203 132.561 54.4883H131.155C131.155 54.2383 131.215 53.9961 131.336 53.7617C131.458 53.5273 131.633 53.3184 131.864 53.1348C132.094 52.9512 132.37 52.8066 132.69 52.7012C133.01 52.5957 133.37 52.543 133.768 52.543C134.245 52.543 134.667 52.623 135.034 52.7832C135.405 52.9434 135.696 53.1855 135.907 53.5098C136.122 53.8301 136.229 54.2324 136.229 54.7168V57.5352C136.229 57.8242 136.249 58.084 136.288 58.3145C136.331 58.541 136.391 58.7383 136.469 58.9062V59H135.022C134.956 58.8477 134.903 58.6543 134.864 58.4199C134.829 58.1816 134.811 57.9512 134.811 57.7285ZM135.016 55.1445L135.028 56.0176H134.014C133.752 56.0176 133.522 56.043 133.323 56.0938C133.124 56.1406 132.958 56.2109 132.825 56.3047C132.692 56.3984 132.592 56.5117 132.526 56.6445C132.459 56.7773 132.426 56.9277 132.426 57.0957C132.426 57.2637 132.465 57.418 132.543 57.5586C132.622 57.6953 132.735 57.8027 132.883 57.8809C133.036 57.959 133.219 57.998 133.434 57.998C133.723 57.998 133.975 57.9395 134.19 57.8223C134.409 57.7012 134.581 57.5547 134.706 57.3828C134.831 57.207 134.897 57.041 134.905 56.8848L135.362 57.5117C135.315 57.6719 135.235 57.8438 135.122 58.0273C135.008 58.2109 134.86 58.3867 134.676 58.5547C134.497 58.7188 134.28 58.8535 134.026 58.959C133.776 59.0645 133.487 59.1172 133.159 59.1172C132.745 59.1172 132.375 59.0352 132.051 58.8711C131.727 58.7031 131.473 58.4785 131.29 58.1973C131.106 57.9121 131.014 57.5898 131.014 57.2305C131.014 56.8945 131.077 56.5977 131.202 56.3398C131.331 56.0781 131.518 55.8594 131.764 55.6836C132.014 55.5078 132.319 55.375 132.678 55.2852C133.038 55.1914 133.448 55.1445 133.909 55.1445H135.016ZM140.788 56.2871H138.76L138.749 55.291H140.413C140.686 55.291 140.911 55.2637 141.086 55.209C141.266 55.1543 141.399 55.0723 141.485 54.9629C141.571 54.8496 141.614 54.7129 141.614 54.5527C141.614 54.4199 141.588 54.3047 141.538 54.207C141.487 54.1055 141.409 54.0234 141.303 53.9609C141.202 53.8945 141.073 53.8477 140.917 53.8203C140.764 53.7891 140.586 53.7734 140.383 53.7734H139.229V59H137.817V52.6602H140.383C140.79 52.6602 141.155 52.6953 141.479 52.7656C141.807 52.8359 142.086 52.9434 142.317 53.0879C142.547 53.2324 142.723 53.416 142.844 53.6387C142.969 53.8574 143.032 54.1152 143.032 54.4121C143.032 54.6074 142.989 54.791 142.903 54.9629C142.821 55.1348 142.698 55.2871 142.534 55.4199C142.37 55.5527 142.168 55.6621 141.93 55.748C141.692 55.8301 141.418 55.8809 141.11 55.9004L140.788 56.2871ZM140.788 59H138.35L138.913 57.8867H140.788C141.038 57.8867 141.245 57.8555 141.409 57.793C141.573 57.7305 141.694 57.6406 141.772 57.5234C141.854 57.4023 141.895 57.2598 141.895 57.0957C141.895 56.9277 141.856 56.7832 141.778 56.6621C141.7 56.541 141.579 56.4492 141.415 56.3867C141.254 56.3203 141.045 56.2871 140.788 56.2871H139.176L139.188 55.291H141.104L141.508 55.6777C141.911 55.7051 142.245 55.791 142.51 55.9355C142.776 56.0801 142.975 56.2617 143.108 56.4805C143.241 56.6992 143.307 56.9375 143.307 57.1953C143.307 57.4922 143.25 57.7539 143.137 57.9805C143.028 58.207 142.864 58.3965 142.645 58.5488C142.43 58.6973 142.167 58.8105 141.854 58.8887C141.542 58.9629 141.186 59 140.788 59ZM144.256 55.9004V55.7656C144.256 55.3086 144.323 54.8848 144.456 54.4941C144.588 54.0996 144.78 53.7578 145.03 53.4688C145.284 53.1758 145.592 52.9492 145.956 52.7891C146.323 52.625 146.737 52.543 147.198 52.543C147.663 52.543 148.077 52.625 148.44 52.7891C148.807 52.9492 149.118 53.1758 149.372 53.4688C149.625 53.7578 149.819 54.0996 149.952 54.4941C150.084 54.8848 150.151 55.3086 150.151 55.7656V55.9004C150.151 56.3574 150.084 56.7812 149.952 57.1719C149.819 57.5625 149.625 57.9043 149.372 58.1973C149.118 58.4863 148.809 58.7129 148.446 58.877C148.083 59.0371 147.67 59.1172 147.209 59.1172C146.745 59.1172 146.329 59.0371 145.961 58.877C145.598 58.7129 145.29 58.4863 145.036 58.1973C144.782 57.9043 144.588 57.5625 144.456 57.1719C144.323 56.7812 144.256 56.3574 144.256 55.9004ZM145.668 55.7656V55.9004C145.668 56.1855 145.698 56.4551 145.756 56.709C145.815 56.9629 145.907 57.1855 146.032 57.377C146.157 57.5684 146.317 57.7188 146.512 57.8281C146.708 57.9375 146.94 57.9922 147.209 57.9922C147.471 57.9922 147.698 57.9375 147.889 57.8281C148.084 57.7188 148.245 57.5684 148.37 57.377C148.495 57.1855 148.586 56.9629 148.645 56.709C148.708 56.4551 148.739 56.1855 148.739 55.9004V55.7656C148.739 55.4844 148.708 55.2188 148.645 54.9688C148.586 54.7148 148.493 54.4902 148.364 54.2949C148.239 54.0996 148.079 53.9473 147.883 53.8379C147.692 53.7246 147.463 53.668 147.198 53.668C146.932 53.668 146.702 53.7246 146.506 53.8379C146.315 53.9473 146.157 54.0996 146.032 54.2949C145.907 54.4902 145.815 54.7148 145.756 54.9688C145.698 55.2188 145.668 55.4844 145.668 55.7656ZM156.426 52.6602V59H155.014V52.6602H156.426ZM155.829 55.4668V56.5859C155.657 56.6602 155.463 56.7285 155.249 56.791C155.038 56.8496 154.815 56.8984 154.581 56.9375C154.346 56.9727 154.11 56.9902 153.872 56.9902C153.313 56.9902 152.831 56.9043 152.424 56.7324C152.022 56.5605 151.711 56.2969 151.493 55.9414C151.278 55.582 151.17 55.127 151.17 54.5762V52.6543H152.577V54.5762C152.577 54.8926 152.624 55.1445 152.717 55.332C152.815 55.5195 152.959 55.6543 153.151 55.7363C153.342 55.8184 153.583 55.8594 153.872 55.8594C154.114 55.8594 154.342 55.8438 154.557 55.8125C154.772 55.7773 154.985 55.7305 155.196 55.6719C155.407 55.6133 155.618 55.5449 155.829 55.4668ZM162.262 55.3086V56.4219H158.981V55.3086H162.262ZM159.391 52.6602V59H157.979V52.6602H159.391ZM163.282 52.6602V59H161.87V52.6602H163.282ZM166.247 56.9375L168.737 52.6602H170.149V59H168.737V54.7168L166.247 59H164.834V52.6602H166.247V56.9375ZM173.167 52.6602V59H171.754V52.6602H173.167ZM177.303 52.6602L174.45 56.4746H172.838L172.651 55.1973H173.829L175.54 52.6602H177.303ZM175.651 59L173.741 56.2344L174.854 55.4316L177.508 59H175.651ZM185.518 52.6602V53.7852H182.389V52.6602H185.518ZM182.723 52.6602V59H181.311V52.6602H182.723ZM186.625 52.6602V59H185.208V52.6602H186.625ZM189.538 53.8789V61.4375H188.125V52.6602H189.426L189.538 53.8789ZM193.668 55.7715V55.8945C193.668 56.3555 193.614 56.7832 193.504 57.1777C193.399 57.5684 193.241 57.9102 193.03 58.2031C192.823 58.4922 192.567 58.7168 192.262 58.877C191.958 59.0371 191.606 59.1172 191.208 59.1172C190.813 59.1172 190.467 59.0449 190.17 58.9004C189.877 58.752 189.629 58.543 189.426 58.2734C189.223 58.0039 189.059 57.6875 188.934 57.3242C188.813 56.957 188.727 56.5547 188.676 56.1172V55.6426C188.727 55.1777 188.813 54.7559 188.934 54.377C189.059 53.998 189.223 53.6719 189.426 53.3984C189.629 53.125 189.877 52.9141 190.17 52.7656C190.463 52.6172 190.805 52.543 191.196 52.543C191.594 52.543 191.948 52.6211 192.256 52.7773C192.565 52.9297 192.825 53.1484 193.036 53.4336C193.247 53.7148 193.405 54.0547 193.51 54.4531C193.616 54.8477 193.668 55.2871 193.668 55.7715ZM192.256 55.8945V55.7715C192.256 55.4785 192.229 55.207 192.174 54.957C192.12 54.7031 192.034 54.4805 191.917 54.2891C191.799 54.0977 191.649 53.9492 191.465 53.8438C191.286 53.7344 191.069 53.6797 190.815 53.6797C190.565 53.6797 190.35 53.7227 190.17 53.8086C189.991 53.8906 189.84 54.0059 189.719 54.1543C189.598 54.3027 189.504 54.4766 189.438 54.6758C189.372 54.8711 189.325 55.084 189.297 55.3145V56.4512C189.344 56.7324 189.424 56.9902 189.538 57.2246C189.651 57.459 189.811 57.6465 190.018 57.7871C190.229 57.9238 190.499 57.9922 190.827 57.9922C191.081 57.9922 191.297 57.9375 191.477 57.8281C191.657 57.7188 191.803 57.5684 191.917 57.377C192.034 57.1816 192.12 56.957 192.174 56.7031C192.229 56.4492 192.256 56.1797 192.256 55.8945ZM197.665 59.1172C197.196 59.1172 196.772 59.041 196.393 58.8887C196.018 58.7324 195.698 58.5156 195.432 58.2383C195.17 57.9609 194.969 57.6348 194.829 57.2598C194.688 56.8848 194.618 56.4805 194.618 56.0469V55.8125C194.618 55.3164 194.69 54.8672 194.834 54.4648C194.979 54.0625 195.18 53.7188 195.438 53.4336C195.696 53.1445 196 52.9238 196.352 52.7715C196.704 52.6191 197.084 52.543 197.495 52.543C197.948 52.543 198.344 52.6191 198.684 52.7715C199.024 52.9238 199.305 53.1387 199.528 53.416C199.754 53.6895 199.922 54.0156 200.032 54.3945C200.145 54.7734 200.202 55.1914 200.202 55.6484V56.252H195.303V55.2383H198.807V55.127C198.799 54.873 198.749 54.6348 198.655 54.4121C198.565 54.1895 198.426 54.0098 198.239 53.873C198.051 53.7363 197.801 53.668 197.489 53.668C197.254 53.668 197.045 53.7188 196.862 53.8203C196.682 53.918 196.532 54.0605 196.411 54.248C196.29 54.4355 196.196 54.6621 196.129 54.9277C196.067 55.1895 196.036 55.4844 196.036 55.8125V56.0469C196.036 56.3242 196.073 56.582 196.147 56.8203C196.225 57.0547 196.338 57.2598 196.487 57.4355C196.635 57.6113 196.815 57.75 197.026 57.8516C197.237 57.9492 197.477 57.998 197.747 57.998C198.086 57.998 198.389 57.9297 198.655 57.793C198.92 57.6562 199.151 57.4629 199.346 57.2129L200.09 57.9336C199.954 58.1328 199.776 58.3242 199.557 58.5078C199.338 58.6875 199.071 58.834 198.754 58.9473C198.442 59.0605 198.079 59.1172 197.665 59.1172ZM202.452 52.6602H203.864L203.793 54.8926C203.774 55.541 203.7 56.0977 203.571 56.5625C203.442 57.0273 203.274 57.4199 203.067 57.7402C202.86 58.0566 202.625 58.3164 202.364 58.5195C202.106 58.7227 201.834 58.8828 201.549 59H201.133V57.8867L201.333 57.875C201.5 57.6953 201.645 57.5156 201.766 57.3359C201.891 57.1523 201.997 56.9512 202.083 56.7324C202.168 56.5098 202.235 56.25 202.282 55.9531C202.333 55.6562 202.366 55.3027 202.381 54.8926L202.452 52.6602ZM202.827 52.6602H206.846V59H205.44V53.8555H202.827V52.6602ZM200.811 57.875H207.713V60.8867H206.301V59H202.241V60.8867H200.805L200.811 57.875ZM212.94 52.6602V53.7852H209.811V52.6602H212.94ZM210.145 52.6602V59H208.733V52.6602H210.145ZM214.047 52.6602V59H212.629V52.6602H214.047ZM216.959 53.8789V61.4375H215.547V52.6602H216.848L216.959 53.8789ZM221.09 55.7715V55.8945C221.09 56.3555 221.036 56.7832 220.926 57.1777C220.821 57.5684 220.663 57.9102 220.452 58.2031C220.245 58.4922 219.989 58.7168 219.684 58.877C219.379 59.0371 219.028 59.1172 218.629 59.1172C218.235 59.1172 217.889 59.0449 217.592 58.9004C217.299 58.752 217.051 58.543 216.848 58.2734C216.645 58.0039 216.481 57.6875 216.356 57.3242C216.235 56.957 216.149 56.5547 216.098 56.1172V55.6426C216.149 55.1777 216.235 54.7559 216.356 54.377C216.481 53.998 216.645 53.6719 216.848 53.3984C217.051 53.125 217.299 52.9141 217.592 52.7656C217.885 52.6172 218.227 52.543 218.618 52.543C219.016 52.543 219.37 52.6211 219.678 52.7773C219.987 52.9297 220.247 53.1484 220.458 53.4336C220.668 53.7148 220.827 54.0547 220.932 54.4531C221.038 54.8477 221.09 55.2871 221.09 55.7715ZM219.678 55.8945V55.7715C219.678 55.4785 219.651 55.207 219.596 54.957C219.542 54.7031 219.456 54.4805 219.338 54.2891C219.221 54.0977 219.071 53.9492 218.887 53.8438C218.708 53.7344 218.491 53.6797 218.237 53.6797C217.987 53.6797 217.772 53.7227 217.592 53.8086C217.413 53.8906 217.262 54.0059 217.141 54.1543C217.02 54.3027 216.926 54.4766 216.86 54.6758C216.793 54.8711 216.747 55.084 216.719 55.3145V56.4512C216.766 56.7324 216.846 56.9902 216.959 57.2246C217.073 57.459 217.233 57.6465 217.44 57.7871C217.651 57.9238 217.92 57.9922 218.249 57.9922C218.502 57.9922 218.719 57.9375 218.899 57.8281C219.079 57.7188 219.225 57.5684 219.338 57.377C219.456 57.1816 219.542 56.957 219.596 56.7031C219.651 56.4492 219.678 56.1797 219.678 55.8945ZM223.75 56.9375L226.241 52.6602H227.653V59H226.241V54.7168L223.75 59H222.338V52.6602H223.75V56.9375ZM230.483 55.9004H231.948L230.149 59H228.69L230.483 55.9004ZM231.514 52.6602H234.233V59H232.827V53.7734H231.514C231.249 53.7734 231.03 53.8203 230.858 53.9141C230.686 54.0039 230.559 54.123 230.477 54.2715C230.395 54.416 230.354 54.5645 230.354 54.7168C230.354 54.8691 230.391 55.0156 230.465 55.1562C230.543 55.2969 230.663 55.4121 230.823 55.502C230.987 55.5918 231.192 55.6367 231.438 55.6367H233.301V56.668H231.438C231.047 56.668 230.698 56.6191 230.389 56.5215C230.081 56.4199 229.819 56.2812 229.604 56.1055C229.389 55.9258 229.225 55.7168 229.112 55.4785C228.999 55.2363 228.942 54.9727 228.942 54.6875C228.942 54.3945 229 54.125 229.118 53.8789C229.235 53.6328 229.403 53.418 229.622 53.2344C229.844 53.0508 230.114 52.9102 230.43 52.8125C230.75 52.7109 231.112 52.6602 231.514 52.6602ZM238.745 52.6602V59H237.327V52.6602H238.745ZM240.825 52.6602V53.7734H235.282V52.6602H240.825ZM243.227 56.9375L245.717 52.6602H247.129V59H245.717V54.7168L243.227 59H241.815V52.6602H243.227V56.9375ZM250.083 56.9375L252.573 52.6602H253.985V59H252.573V54.7168L250.083 59H248.67V52.6602H250.083V56.9375ZM252.198 50.2227H253.247C253.247 50.5469 253.168 50.834 253.012 51.084C252.86 51.3301 252.641 51.5234 252.356 51.6641C252.075 51.8047 251.739 51.875 251.348 51.875C250.758 51.875 250.292 51.7227 249.948 51.418C249.608 51.1094 249.438 50.7109 249.438 50.2227H250.487C250.487 50.4414 250.551 50.6348 250.68 50.8027C250.813 50.9668 251.036 51.0488 251.348 51.0488C251.657 51.0488 251.875 50.9668 252.004 50.8027C252.133 50.6348 252.198 50.4414 252.198 50.2227Z" fill="#757575"/>
<defs>
<clipPath id="clip0_150_3203">
<rect width="62" height="62" fill="white"/>
</clipPath>
<clipPath id="clip1_150_3203">
<rect width="62" height="62" fill="white"/>
</clipPath>
<clipPath id="clip2_150_3203">
<rect width="62" height="62" fill="white"/>
</clipPath>
</defs>
</svg>
