<svg width="23" height="23" viewBox="0 0 23 23" fill="none" xmlns="http://www.w3.org/2000/svg">
<path d="M20.7511 1.08984H2.021C1.37945 1.08984 0.859375 1.60992 0.859375 2.25147V20.9816C0.859375 21.6231 1.37945 22.1432 2.021 22.1432H20.7511C21.3927 22.1432 21.9127 21.6231 21.9127 20.9816V2.25147C21.9127 1.60992 21.3927 1.08984 20.7511 1.08984Z" fill="#3D5A98"/>
<path d="M15.3847 22.1425V13.9898H18.1207L18.5298 10.8126H15.3847V8.78469C15.3847 7.865 15.6409 7.23704 16.959 7.23704H18.6419V4.39079C17.827 4.30602 17.0081 4.26564 16.1888 4.26983C13.7659 4.26983 12.0973 5.74632 12.0973 8.46982V10.8126H9.36133V13.9898H12.0973V22.1425H15.3847Z" fill="white"/>
</svg>
