<svg width="291" height="70" viewBox="0 0 291 70" fill="none" xmlns="http://www.w3.org/2000/svg">
<g clip-path="url(#clip0_46_5551)">
<g clip-path="url(#clip1_46_5551)">
<g clip-path="url(#clip2_46_5551)">
<path d="M72.6907 18.8377L54.6457 0.792746C54.1381 0.285143 53.4497 0 52.732 0H27.2348C26.5171 0 25.8286 0.285143 25.321 0.792746L7.27614 18.8377C6.76854 19.3453 6.4834 20.0338 6.4834 20.7514V46.2486C6.4834 46.9665 6.76854 47.6548 7.27614 48.1624L25.3211 66.2073C25.8287 66.7149 26.5172 67 27.2349 67H52.732C53.4499 67 54.1382 66.7149 54.6459 66.2073L72.6908 48.1623C73.1984 47.6547 73.4835 46.9663 73.4835 46.2485V20.7514C73.4834 20.0337 73.1983 19.3452 72.6907 18.8377ZM68.0705 45.1275L51.6109 61.5871H28.356L11.8963 45.1275V21.8726L28.356 5.41287H51.6109L68.0705 21.8725V45.1275Z" fill="#0091FF"/>
</g>
</g>
</g>
<path d="M25.5417 16.1359H31.1708L39.4592 39.8268L47.7477 16.1359H53.3768L41.7197 48.4033H37.1987L25.5417 16.1359ZM22.5056 16.1359H28.1125L29.1319 39.2284V48.4033H22.5056V16.1359ZM50.806 16.1359H56.4351V48.4033H49.7866V39.2284L50.806 16.1359Z" fill="white"/>
<path d="M91.4772 26.8708L83.746 50.4355H77.518L88.0802 22.0095H92.0434L91.4772 26.8708ZM97.9004 50.4355L90.1496 26.8708L89.5249 22.0095H93.5272L104.148 50.4355H97.9004ZM97.549 39.8539V44.4419H82.5355V39.8539H97.549ZM106.784 22.0095H117.385C119.558 22.0095 121.426 22.3349 122.988 22.9857C124.563 23.6365 125.773 24.5996 126.619 25.8751C127.465 27.1507 127.888 28.719 127.888 30.5803C127.888 32.1031 127.628 33.4112 127.107 34.5045C126.6 35.5848 125.877 36.4893 124.94 37.2182C124.016 37.9341 122.929 38.5068 121.68 38.9363L119.825 39.9124H110.61L110.571 35.344H117.424C118.452 35.344 119.305 35.1618 119.981 34.7973C120.658 34.4329 121.166 33.9253 121.504 33.2745C121.856 32.6237 122.031 31.8688 122.031 31.0098C122.031 30.0987 121.862 29.3113 121.524 28.6475C121.185 27.9837 120.671 27.4761 119.981 27.1246C119.292 26.7732 118.426 26.5975 117.385 26.5975H112.641V50.4355H106.784V22.0095ZM122.676 50.4355L116.194 37.7649L122.383 37.7258L128.943 50.1622V50.4355H122.676ZM138.255 22.0095V50.4355H132.398V22.0095H138.255ZM155.28 22.0095L144.015 36.0468L137.513 43.0362L136.459 37.4915L140.852 31.4783L148.095 22.0095H155.28ZM148.622 50.4355L140.247 37.2963L144.581 33.665L155.553 50.4355H148.622ZM176.892 45.8671V50.4355H161.761V45.8671H176.892ZM163.675 22.0095V50.4355H157.818V22.0095H163.675ZM174.92 33.5869V38.0382H161.761V33.5869H174.92ZM176.872 22.0095V26.5975H161.761V22.0095H176.872ZM193.409 22.0095V50.4355H187.571V22.0095H193.409ZM202.155 22.0095V26.5975H178.961V22.0095H202.155ZM219.98 42.9971C219.98 42.4895 219.902 42.034 219.746 41.6305C219.603 41.214 219.329 40.8366 218.926 40.4981C218.522 40.1467 217.956 39.8018 217.227 39.4634C216.498 39.125 215.555 38.7736 214.396 38.4091C213.108 37.9926 211.884 37.5241 210.726 37.0035C209.581 36.4828 208.565 35.8776 207.68 35.1878C206.808 34.4849 206.118 33.6715 205.611 32.7474C205.116 31.8233 204.869 30.7495 204.869 29.526C204.869 28.3416 205.129 27.2678 205.65 26.3047C206.171 25.3285 206.899 24.4955 207.837 23.8057C208.774 23.1028 209.88 22.5627 211.156 22.1852C212.444 21.8078 213.856 21.619 215.392 21.619C217.488 21.619 219.316 21.9965 220.878 22.7514C222.44 23.5063 223.65 24.541 224.51 25.8556C225.382 27.1702 225.818 28.6735 225.818 30.3655H220C220 29.5325 219.824 28.8036 219.472 28.1789C219.134 27.5411 218.613 27.04 217.911 26.6756C217.221 26.3112 216.349 26.1289 215.294 26.1289C214.279 26.1289 213.433 26.2851 212.756 26.5975C212.08 26.8969 211.572 27.3069 211.234 27.8275C210.895 28.3351 210.726 28.9078 210.726 29.5455C210.726 30.0271 210.843 30.4631 211.077 30.8536C211.325 31.2441 211.689 31.6085 212.171 31.9469C212.652 32.2853 213.245 32.6042 213.947 32.9036C214.65 33.2029 215.464 33.4958 216.388 33.7821C217.937 34.2507 219.297 34.7778 220.468 35.3635C221.653 35.9492 222.642 36.6065 223.436 37.3354C224.23 38.0642 224.828 38.8907 225.232 39.8148C225.635 40.7389 225.837 41.7867 225.837 42.9581C225.837 44.1946 225.596 45.3009 225.115 46.2771C224.633 47.2532 223.937 48.0797 223.026 48.7565C222.115 49.4333 221.028 49.9475 219.765 50.2989C218.503 50.6503 217.091 50.826 215.529 50.826C214.123 50.826 212.737 50.6438 211.37 50.2794C210.004 49.9019 208.761 49.3357 207.641 48.5808C206.535 47.8259 205.65 46.8628 204.986 45.6914C204.322 44.52 203.99 43.1338 203.99 41.5329H209.867C209.867 42.4179 210.004 43.1663 210.277 43.7781C210.55 44.3898 210.934 44.8844 211.429 45.2619C211.936 45.6393 212.535 45.9126 213.225 46.0818C213.928 46.251 214.696 46.3356 215.529 46.3356C216.544 46.3356 217.377 46.1925 218.028 45.9061C218.692 45.6198 219.18 45.2228 219.492 44.7152C219.817 44.2076 219.98 43.6349 219.98 42.9971ZM229.742 47.7218C229.742 46.8888 230.028 46.1925 230.601 45.6328C231.187 45.0731 231.961 44.7933 232.924 44.7933C233.887 44.7933 234.655 45.0731 235.228 45.6328C235.814 46.1925 236.106 46.8888 236.106 47.7218C236.106 48.5548 235.814 49.2511 235.228 49.8108C234.655 50.3705 233.887 50.6503 232.924 50.6503C231.961 50.6503 231.187 50.3705 230.601 49.8108C230.028 49.2511 229.742 48.5548 229.742 47.7218ZM254.126 22.0095V50.4355H248.289V22.0095H254.126ZM262.873 22.0095V26.5975H239.679V22.0095H262.873ZM273.337 41.7086V22.0095H279.175V41.7086C279.175 43.6089 278.758 45.2423 277.925 46.609C277.092 47.9626 275.954 49.0038 274.509 49.7327C273.077 50.4616 271.463 50.826 269.667 50.826C267.806 50.826 266.159 50.5136 264.728 49.8889C263.296 49.2641 262.17 48.3075 261.35 47.019C260.53 45.7174 260.12 44.0709 260.12 42.0795H265.997C265.997 43.1208 266.14 43.9473 266.426 44.559C266.726 45.1707 267.149 45.6068 267.695 45.8671C268.242 46.1274 268.899 46.2575 269.667 46.2575C270.409 46.2575 271.053 46.0818 271.6 45.7304C272.147 45.379 272.57 44.8649 272.869 44.1881C273.181 43.5113 273.337 42.6848 273.337 41.7086Z" fill="white"/>
<path d="M85.5237 62.1371V62.6436C85.5237 63.3402 85.4329 63.9649 85.2514 64.5179C85.0699 65.0709 84.8103 65.5416 84.4726 65.9299C84.1391 66.3183 83.7381 66.6159 83.2695 66.8227C82.8009 67.0253 82.2817 67.1266 81.7118 67.1266C81.1462 67.1266 80.6291 67.0253 80.1605 66.8227C79.6962 66.6159 79.2931 66.3183 78.9511 65.9299C78.6092 65.5416 78.3433 65.0709 78.1533 64.5179C77.9676 63.9649 77.8747 63.3402 77.8747 62.6436V62.1371C77.8747 61.4406 77.9676 60.8179 78.1533 60.2692C78.3391 59.7162 78.6008 59.2455 78.9385 58.8572C79.2804 58.4646 79.6835 58.167 80.1479 57.9644C80.6164 57.7575 81.1335 57.6541 81.6992 57.6541C82.2691 57.6541 82.7883 57.7575 83.2568 57.9644C83.7254 58.167 84.1285 58.4646 84.4662 58.8572C84.8039 59.2455 85.0635 59.7162 85.2451 60.2692C85.4308 60.8179 85.5237 61.4406 85.5237 62.1371ZM83.9343 62.6436V62.1244C83.9343 61.6094 83.8837 61.1557 83.7824 60.7631C83.6853 60.3663 83.5397 60.0349 83.3455 59.769C83.1555 59.4988 82.9212 59.2962 82.6426 59.1611C82.364 59.0218 82.0496 58.9521 81.6992 58.9521C81.3488 58.9521 81.0364 59.0218 80.7621 59.1611C80.4877 59.2962 80.2534 59.4988 80.0592 59.769C79.8693 60.0349 79.7236 60.3663 79.6223 60.7631C79.521 61.1557 79.4704 61.6094 79.4704 62.1244V62.6436C79.4704 63.1586 79.521 63.6145 79.6223 64.0113C79.7236 64.4081 79.8714 64.7437 80.0656 65.0181C80.264 65.2883 80.5003 65.493 80.7747 65.6323C81.0491 65.7674 81.3615 65.8349 81.7118 65.8349C82.0664 65.8349 82.3809 65.7674 82.6553 65.6323C82.9297 65.493 83.1619 65.2883 83.3518 65.0181C83.5418 64.7437 83.6853 64.4081 83.7824 64.0113C83.8837 63.6145 83.9343 63.1586 83.9343 62.6436ZM91.6403 63.0109V64.214H88.0944V63.0109H91.6403ZM88.5376 60.1489V67H87.0117V60.1489H88.5376ZM92.742 60.1489V67H91.216V60.1489H92.742ZM98.9726 60.1489V61.3646H95.6294V60.1489H98.9726ZM100.169 60.1489V67H98.6434V60.1489H100.169ZM95.2558 60.1489H96.7628L96.5792 63.5364C96.5538 64.0388 96.5032 64.482 96.4272 64.8661C96.3554 65.2461 96.2583 65.5732 96.1359 65.8476C96.0135 66.1178 95.8637 66.3373 95.6864 66.5061C95.5091 66.675 95.3022 66.7995 95.0658 66.8797C94.8294 66.9599 94.5635 67 94.268 67H93.7931L93.7868 65.7463L94.0274 65.7273C94.1836 65.7146 94.3187 65.6745 94.4326 65.607C94.5466 65.5352 94.6437 65.4339 94.7239 65.303C94.8083 65.1722 94.8759 65.0033 94.9265 64.7965C94.9814 64.5897 95.0236 64.3448 95.0532 64.062C95.0869 63.7792 95.1123 63.4499 95.1292 63.0742L95.2558 60.1489ZM105.653 65.626V62.3587C105.653 62.1139 105.608 61.9028 105.52 61.7255C105.431 61.5482 105.296 61.411 105.115 61.3139C104.937 61.2169 104.714 61.1683 104.443 61.1683C104.194 61.1683 103.979 61.2105 103.798 61.295C103.616 61.3794 103.475 61.4934 103.373 61.6369C103.272 61.7804 103.221 61.9429 103.221 62.1244H101.702C101.702 61.8543 101.767 61.5926 101.898 61.3393C102.029 61.086 102.219 60.8602 102.468 60.6618C102.717 60.4634 103.014 60.3072 103.361 60.1932C103.707 60.0792 104.095 60.0222 104.526 60.0222C105.041 60.0222 105.497 60.1088 105.893 60.2818C106.294 60.4549 106.609 60.7166 106.837 61.067C107.069 61.4131 107.185 61.8479 107.185 62.3714V65.417C107.185 65.7294 107.206 66.0101 107.248 66.2592C107.295 66.504 107.36 66.7172 107.445 66.8987V67H105.881C105.809 66.8354 105.752 66.6264 105.71 66.3731C105.672 66.1156 105.653 65.8666 105.653 65.626ZM105.874 62.8336L105.887 63.7771H104.792C104.509 63.7771 104.26 63.8045 104.044 63.8594C103.829 63.91 103.65 63.986 103.506 64.0873C103.363 64.1886 103.255 64.3111 103.183 64.4546C103.112 64.5981 103.076 64.7606 103.076 64.9421C103.076 65.1236 103.118 65.2904 103.202 65.4424C103.287 65.5901 103.409 65.7062 103.57 65.7906C103.734 65.875 103.933 65.9172 104.165 65.9172C104.477 65.9172 104.749 65.8539 104.982 65.7273C105.218 65.5964 105.404 65.4381 105.539 65.2524C105.674 65.0624 105.746 64.883 105.754 64.7142L106.248 65.3917C106.197 65.5648 106.111 65.7505 105.988 65.9489C105.866 66.1473 105.706 66.3373 105.507 66.5188C105.313 66.6961 105.079 66.8417 104.804 66.9557C104.534 67.0697 104.222 67.1266 103.867 67.1266C103.42 67.1266 103.021 67.038 102.67 66.8607C102.32 66.6792 102.046 66.4365 101.847 66.1325C101.649 65.8244 101.55 65.4761 101.55 65.0878C101.55 64.7247 101.617 64.4039 101.752 64.1253C101.892 63.8425 102.094 63.6061 102.36 63.4161C102.63 63.2262 102.96 63.0827 103.348 62.9856C103.736 62.8843 104.18 62.8336 104.678 62.8336H105.874ZM110.357 64.7712L113.048 60.1489H114.574V67H113.048V62.3714L110.357 67H108.831V60.1489H110.357V64.7712ZM112.643 57.5148H113.777C113.777 57.8652 113.692 58.1754 113.523 58.4456C113.359 58.7115 113.122 58.9205 112.814 59.0725C112.51 59.2244 112.147 59.3004 111.725 59.3004C111.088 59.3004 110.583 59.1358 110.212 58.8065C109.845 58.473 109.661 58.0425 109.661 57.5148H110.794C110.794 57.7512 110.864 57.9601 111.003 58.1417C111.147 58.319 111.387 58.4076 111.725 58.4076C112.059 58.4076 112.295 58.319 112.434 58.1417C112.574 57.9601 112.643 57.7512 112.643 57.5148ZM120.868 63.0109V64.214H117.322V63.0109H120.868ZM117.766 60.1489V67H116.24V60.1489H117.766ZM121.97 60.1489V67H120.444V60.1489H121.97ZM129.625 65.9109C129.874 65.9109 130.098 65.8624 130.297 65.7653C130.499 65.664 130.662 65.5247 130.784 65.3474C130.911 65.1701 130.98 64.9653 130.993 64.7332H132.43C132.422 65.1764 132.291 65.5795 132.038 65.9426C131.785 66.3056 131.449 66.5948 131.031 66.81C130.613 67.0211 130.151 67.1266 129.644 67.1266C129.121 67.1266 128.665 67.038 128.277 66.8607C127.888 66.6792 127.565 66.4301 127.308 66.1135C127.05 65.7969 126.856 65.4318 126.725 65.0181C126.599 64.6044 126.535 64.1612 126.535 63.6884V63.4668C126.535 62.994 126.599 62.5508 126.725 62.1371C126.856 61.7192 127.05 61.3519 127.308 61.0353C127.565 60.7187 127.888 60.4718 128.277 60.2945C128.665 60.113 129.119 60.0222 129.638 60.0222C130.187 60.0222 130.668 60.132 131.082 60.3515C131.495 60.5668 131.82 60.8686 132.057 61.257C132.297 61.6411 132.422 62.0886 132.43 62.5993H130.993C130.98 62.346 130.917 62.1181 130.803 61.9155C130.693 61.7086 130.537 61.544 130.335 61.4216C130.136 61.2992 129.898 61.238 129.619 61.238C129.311 61.238 129.056 61.3013 128.853 61.4279C128.65 61.5503 128.492 61.7192 128.378 61.9345C128.264 62.1455 128.182 62.384 128.131 62.65C128.085 62.9117 128.061 63.184 128.061 63.4668V63.6884C128.061 63.9712 128.085 64.2456 128.131 64.5116C128.177 64.7775 128.258 65.016 128.372 65.2271C128.49 65.4339 128.65 65.6006 128.853 65.7273C129.056 65.8497 129.313 65.9109 129.625 65.9109ZM138.199 60.1489V61.3646H134.818V60.1489H138.199ZM135.178 60.1489V67H133.652V60.1489H135.178ZM139.396 60.1489V67H137.863V60.1489H139.396ZM142.542 61.4659V69.6341H141.016V60.1489H142.422L142.542 61.4659ZM147.006 63.5111V63.6441C147.006 64.1422 146.947 64.6044 146.829 65.0308C146.715 65.4529 146.544 65.8223 146.316 66.1389C146.093 66.4512 145.816 66.694 145.487 66.867C145.158 67.0401 144.778 67.1266 144.347 67.1266C143.921 67.1266 143.547 67.0485 143.226 66.8924C142.91 66.7319 142.642 66.5061 142.422 66.2148C142.203 65.9236 142.025 65.5817 141.89 65.1891C141.759 64.7923 141.667 64.3575 141.612 63.8847V63.3718C141.667 62.8695 141.759 62.4136 141.89 62.0041C142.025 61.5947 142.203 61.2422 142.422 60.9467C142.642 60.6512 142.91 60.4233 143.226 60.2629C143.543 60.1024 143.912 60.0222 144.334 60.0222C144.765 60.0222 145.147 60.1067 145.48 60.2755C145.814 60.4401 146.095 60.6765 146.323 60.9847C146.551 61.2886 146.722 61.6559 146.836 62.0864C146.949 62.5128 147.006 62.9877 147.006 63.5111ZM145.48 63.6441V63.5111C145.48 63.1945 145.451 62.9011 145.392 62.631C145.333 62.3566 145.24 62.116 145.113 61.9091C144.987 61.7023 144.824 61.5419 144.626 61.4279C144.431 61.3097 144.197 61.2506 143.923 61.2506C143.653 61.2506 143.42 61.2971 143.226 61.3899C143.032 61.4786 142.87 61.6031 142.739 61.7635C142.608 61.9239 142.507 62.1118 142.435 62.3271C142.363 62.5381 142.312 62.7682 142.283 63.0172V64.2456C142.334 64.5496 142.42 64.8282 142.542 65.0814C142.665 65.3347 142.838 65.5373 143.062 65.6893C143.29 65.837 143.581 65.9109 143.935 65.9109C144.21 65.9109 144.444 65.8518 144.638 65.7336C144.833 65.6154 144.991 65.4529 145.113 65.2461C145.24 65.035 145.333 64.7923 145.392 64.5179C145.451 64.2435 145.48 63.9522 145.48 63.6441ZM152.167 65.626V62.3587C152.167 62.1139 152.123 61.9028 152.034 61.7255C151.945 61.5482 151.81 61.411 151.629 61.3139C151.451 61.2169 151.228 61.1683 150.958 61.1683C150.709 61.1683 150.493 61.2105 150.312 61.295C150.13 61.3794 149.989 61.4934 149.887 61.6369C149.786 61.7804 149.736 61.9429 149.736 62.1244H148.216C148.216 61.8543 148.281 61.5926 148.412 61.3393C148.543 61.086 148.733 60.8602 148.982 60.6618C149.231 60.4634 149.529 60.3072 149.875 60.1932C150.221 60.0792 150.609 60.0222 151.04 60.0222C151.555 60.0222 152.011 60.1088 152.408 60.2818C152.809 60.4549 153.123 60.7166 153.351 61.067C153.583 61.4131 153.699 61.8479 153.699 62.3714V65.417C153.699 65.7294 153.72 66.0101 153.763 66.2592C153.809 66.504 153.874 66.7172 153.959 66.8987V67H152.395C152.323 66.8354 152.266 66.6264 152.224 66.3731C152.186 66.1156 152.167 65.8666 152.167 65.626ZM152.389 62.8336L152.401 63.7771H151.306C151.023 63.7771 150.774 63.8045 150.559 63.8594C150.343 63.91 150.164 63.986 150.02 64.0873C149.877 64.1886 149.769 64.3111 149.698 64.4546C149.626 64.5981 149.59 64.7606 149.59 64.9421C149.59 65.1236 149.632 65.2904 149.717 65.4424C149.801 65.5901 149.923 65.7062 150.084 65.7906C150.248 65.875 150.447 65.9172 150.679 65.9172C150.991 65.9172 151.264 65.8539 151.496 65.7273C151.732 65.5964 151.918 65.4381 152.053 65.2524C152.188 65.0624 152.26 64.883 152.268 64.7142L152.762 65.3917C152.712 65.5648 152.625 65.7505 152.503 65.9489C152.38 66.1473 152.22 66.3373 152.021 66.5188C151.827 66.6961 151.593 66.8417 151.318 66.9557C151.048 67.0697 150.736 67.1266 150.381 67.1266C149.934 67.1266 149.535 67.038 149.185 66.8607C148.834 66.6792 148.56 66.4365 148.361 66.1325C148.163 65.8244 148.064 65.4761 148.064 65.0878C148.064 64.7247 148.131 64.4039 148.267 64.1253C148.406 63.8425 148.608 63.6061 148.874 63.4161C149.145 63.2262 149.474 63.0827 149.862 62.9856C150.251 62.8843 150.694 62.8336 151.192 62.8336H152.389ZM158.626 64.0683H156.435L156.422 62.9919H158.22C158.516 62.9919 158.758 62.9624 158.948 62.9033C159.143 62.8442 159.286 62.7555 159.379 62.6373C159.472 62.5149 159.518 62.3672 159.518 62.1941C159.518 62.0506 159.491 61.926 159.436 61.8205C159.381 61.7107 159.297 61.6221 159.183 61.5546C159.073 61.4828 158.934 61.4321 158.765 61.4026C158.6 61.3688 158.408 61.3519 158.189 61.3519H156.941V67H155.415V60.1489H158.189C158.628 60.1489 159.022 60.1869 159.373 60.2629C159.727 60.3388 160.029 60.4549 160.278 60.6111C160.527 60.7673 160.717 60.9657 160.848 61.2063C160.983 61.4427 161.051 61.7213 161.051 62.0421C161.051 62.2532 161.004 62.4516 160.911 62.6373C160.823 62.8231 160.69 62.9877 160.512 63.1312C160.335 63.2747 160.118 63.3929 159.86 63.4858C159.603 63.5744 159.307 63.6293 158.974 63.6504L158.626 64.0683ZM158.626 67H155.991L156.599 65.7969H158.626C158.896 65.7969 159.119 65.7632 159.297 65.6956C159.474 65.6281 159.605 65.531 159.689 65.4044C159.778 65.2735 159.822 65.1194 159.822 64.9421C159.822 64.7606 159.78 64.6044 159.696 64.4736C159.611 64.3427 159.48 64.2435 159.303 64.176C159.13 64.1042 158.904 64.0683 158.626 64.0683H156.884L156.897 62.9919H158.967L159.404 63.4098C159.839 63.4394 160.2 63.5322 160.487 63.6884C160.774 63.8446 160.989 64.0409 161.133 64.2773C161.276 64.5137 161.348 64.7712 161.348 65.0498C161.348 65.3706 161.287 65.6534 161.165 65.8982C161.046 66.1431 160.869 66.3478 160.633 66.5124C160.401 66.6729 160.116 66.7953 159.778 66.8797C159.44 66.9599 159.056 67 158.626 67ZM162.374 63.6504V63.5048C162.374 63.0109 162.446 62.5529 162.589 62.1308C162.733 61.7044 162.94 61.3351 163.21 61.0227C163.484 60.7061 163.818 60.4613 164.21 60.2882C164.607 60.1109 165.054 60.0222 165.553 60.0222C166.055 60.0222 166.502 60.1109 166.895 60.2882C167.292 60.4613 167.627 60.7061 167.902 61.0227C168.176 61.3351 168.385 61.7044 168.529 62.1308C168.672 62.5529 168.744 63.0109 168.744 63.5048V63.6504C168.744 64.1443 168.672 64.6023 168.529 65.0244C168.385 65.4466 168.176 65.8159 167.902 66.1325C167.627 66.4449 167.294 66.6897 166.901 66.867C166.509 67.0401 166.063 67.1266 165.565 67.1266C165.063 67.1266 164.613 67.0401 164.217 66.867C163.824 66.6897 163.491 66.4449 163.216 66.1325C162.942 65.8159 162.733 65.4466 162.589 65.0244C162.446 64.6023 162.374 64.1443 162.374 63.6504ZM163.9 63.5048V63.6504C163.9 63.9586 163.932 64.2498 163.995 64.5242C164.058 64.7986 164.157 65.0392 164.293 65.2461C164.428 65.4529 164.601 65.6154 164.812 65.7336C165.023 65.8518 165.274 65.9109 165.565 65.9109C165.848 65.9109 166.093 65.8518 166.3 65.7336C166.511 65.6154 166.684 65.4529 166.819 65.2461C166.954 65.0392 167.053 64.7986 167.117 64.5242C167.184 64.2498 167.218 63.9586 167.218 63.6504V63.5048C167.218 63.2009 167.184 62.9138 167.117 62.6436C167.053 62.3693 166.952 62.1265 166.813 61.9155C166.678 61.7044 166.505 61.5398 166.293 61.4216C166.087 61.2992 165.84 61.238 165.553 61.238C165.266 61.238 165.017 61.2992 164.805 61.4216C164.599 61.5398 164.428 61.7044 164.293 61.9155C164.157 62.1265 164.058 62.3693 163.995 62.6436C163.932 62.9138 163.9 63.2009 163.9 63.5048ZM175.525 60.1489V67H173.999V60.1489H175.525ZM174.88 63.1819V64.3913C174.694 64.4715 174.485 64.5453 174.253 64.6129C174.025 64.6762 173.784 64.729 173.531 64.7712C173.278 64.8092 173.022 64.8282 172.765 64.8282C172.161 64.8282 171.64 64.7353 171.201 64.5496C170.766 64.3638 170.43 64.0789 170.194 63.6947C169.962 63.3064 169.846 62.8146 169.846 62.2194V60.1425H171.365V62.2194C171.365 62.5613 171.416 62.8336 171.517 63.0362C171.623 63.2388 171.779 63.3845 171.986 63.4731C172.193 63.5618 172.452 63.6061 172.765 63.6061C173.026 63.6061 173.273 63.5892 173.505 63.5554C173.738 63.5175 173.968 63.4668 174.196 63.4035C174.424 63.3402 174.652 63.2663 174.88 63.1819ZM181.832 63.0109V64.214H178.286V63.0109H181.832ZM178.729 60.1489V67H177.203V60.1489H178.729ZM182.934 60.1489V67H181.408V60.1489H182.934ZM186.138 64.7712L188.829 60.1489H190.355V67H188.829V62.3714L186.138 67H184.612V60.1489H186.138V64.7712ZM193.616 60.1489V67H192.09V60.1489H193.616ZM198.086 60.1489L195.002 64.2709H193.261L193.058 62.8906H194.331L196.18 60.1489H198.086ZM196.3 67L194.236 64.0113L195.439 63.1439L198.308 67H196.3ZM206.963 60.1489V61.3646H203.582V60.1489H206.963ZM203.943 60.1489V67H202.417V60.1489H203.943ZM208.16 60.1489V67H206.628V60.1489H208.16ZM211.307 61.4659V69.6341H209.781V60.1489H211.187L211.307 61.4659ZM215.771 63.5111V63.6441C215.771 64.1422 215.712 64.6044 215.594 65.0308C215.48 65.4529 215.309 65.8223 215.081 66.1389C214.857 66.4512 214.581 66.694 214.251 66.867C213.922 67.0401 213.542 67.1266 213.112 67.1266C212.685 67.1266 212.312 67.0485 211.991 66.8924C211.674 66.7319 211.406 66.5061 211.187 66.2148C210.967 65.9236 210.79 65.5817 210.655 65.1891C210.524 64.7923 210.431 64.3575 210.376 63.8847V63.3718C210.431 62.8695 210.524 62.4136 210.655 62.0041C210.79 61.5947 210.967 61.2422 211.187 60.9467C211.406 60.6512 211.674 60.4233 211.991 60.2629C212.307 60.1024 212.677 60.0222 213.099 60.0222C213.529 60.0222 213.911 60.1067 214.245 60.2755C214.578 60.4401 214.859 60.6765 215.087 60.9847C215.315 61.2886 215.486 61.6559 215.6 62.0864C215.714 62.5128 215.771 62.9877 215.771 63.5111ZM214.245 63.6441V63.5111C214.245 63.1945 214.215 62.9011 214.156 62.631C214.097 62.3566 214.004 62.116 213.878 61.9091C213.751 61.7023 213.589 61.5419 213.39 61.4279C213.196 61.3097 212.962 61.2506 212.687 61.2506C212.417 61.2506 212.185 61.2971 211.991 61.3899C211.797 61.4786 211.634 61.6031 211.503 61.7635C211.372 61.9239 211.271 62.1118 211.199 62.3271C211.128 62.5381 211.077 62.7682 211.047 63.0172V64.2456C211.098 64.5496 211.185 64.8282 211.307 65.0814C211.429 65.3347 211.602 65.5373 211.826 65.6893C212.054 65.837 212.345 65.9109 212.7 65.9109C212.974 65.9109 213.209 65.8518 213.403 65.7336C213.597 65.6154 213.755 65.4529 213.878 65.2461C214.004 65.035 214.097 64.7923 214.156 64.5179C214.215 64.2435 214.245 63.9522 214.245 63.6441ZM220.089 67.1266C219.583 67.1266 219.125 67.0443 218.715 66.8797C218.31 66.7108 217.964 66.4766 217.677 66.1769C217.394 65.8771 217.177 65.5247 217.025 65.1194C216.873 64.7142 216.797 64.2773 216.797 63.8087V63.5554C216.797 63.0193 216.875 62.5339 217.031 62.0991C217.187 61.6643 217.405 61.2928 217.683 60.9847C217.962 60.6723 218.291 60.4338 218.671 60.2692C219.051 60.1046 219.462 60.0222 219.906 60.0222C220.395 60.0222 220.824 60.1046 221.191 60.2692C221.558 60.4338 221.862 60.666 222.103 60.9657C222.348 61.2612 222.529 61.6137 222.647 62.0231C222.77 62.4326 222.831 62.8843 222.831 63.3781V64.0303H217.538V62.9349H221.324V62.8146C221.316 62.5402 221.261 62.2827 221.159 62.0421C221.062 61.8015 220.912 61.6073 220.71 61.4596C220.507 61.3118 220.237 61.238 219.899 61.238C219.646 61.238 219.42 61.2928 219.222 61.4026C219.028 61.5081 218.865 61.6622 218.734 61.8648C218.603 62.0674 218.502 62.3123 218.43 62.5993C218.363 62.8822 218.329 63.2009 218.329 63.5554V63.8087C218.329 64.1084 218.369 64.387 218.449 64.6445C218.534 64.8978 218.656 65.1194 218.817 65.3094C218.977 65.4993 219.171 65.6492 219.399 65.7589C219.627 65.8645 219.887 65.9172 220.178 65.9172C220.545 65.9172 220.872 65.8434 221.159 65.6956C221.446 65.5479 221.696 65.3389 221.907 65.0688L222.711 65.8476C222.563 66.0629 222.371 66.2697 222.135 66.4681C221.898 66.6623 221.609 66.8206 221.267 66.943C220.929 67.0654 220.537 67.1266 220.089 67.1266ZM225.262 60.1489H226.788L226.712 62.5613C226.691 63.2621 226.611 63.8636 226.472 64.3659C226.333 64.8683 226.151 65.2925 225.927 65.6386C225.704 65.9806 225.45 66.2613 225.167 66.4808C224.889 66.7003 224.596 66.8734 224.287 67H223.838V65.7969L224.053 65.7843C224.235 65.5901 224.391 65.3959 224.522 65.2017C224.657 65.0033 224.771 64.7859 224.864 64.5496C224.956 64.3089 225.028 64.0282 225.079 63.7074C225.134 63.3866 225.17 63.0046 225.186 62.5613L225.262 60.1489ZM225.668 60.1489H230.011V67H228.492V61.4406H225.668V60.1489ZM223.49 65.7843H230.949V69.0389H229.423V67H225.035V69.0389H223.483L223.49 65.7843ZM236.597 60.1489V61.3646H233.215V60.1489H236.597ZM233.576 60.1489V67H232.05V60.1489H233.576ZM237.793 60.1489V67H236.261V60.1489H237.793ZM240.94 61.4659V69.6341H239.414V60.1489H240.82L240.94 61.4659ZM245.404 63.5111V63.6441C245.404 64.1422 245.345 64.6044 245.227 65.0308C245.113 65.4529 244.942 65.8223 244.714 66.1389C244.49 66.4512 244.214 66.694 243.885 66.867C243.555 67.0401 243.175 67.1266 242.745 67.1266C242.319 67.1266 241.945 67.0485 241.624 66.8924C241.308 66.7319 241.039 66.5061 240.82 66.2148C240.6 65.9236 240.423 65.5817 240.288 65.1891C240.157 64.7923 240.064 64.3575 240.009 63.8847V63.3718C240.064 62.8695 240.157 62.4136 240.288 62.0041C240.423 61.5947 240.6 61.2422 240.82 60.9467C241.039 60.6512 241.308 60.4233 241.624 60.2629C241.941 60.1024 242.31 60.0222 242.732 60.0222C243.163 60.0222 243.545 60.1067 243.878 60.2755C244.212 60.4401 244.492 60.6765 244.72 60.9847C244.948 61.2886 245.119 61.6559 245.233 62.0864C245.347 62.5128 245.404 62.9877 245.404 63.5111ZM243.878 63.6441V63.5111C243.878 63.1945 243.849 62.9011 243.79 62.631C243.731 62.3566 243.638 62.116 243.511 61.9091C243.384 61.7023 243.222 61.5419 243.023 61.4279C242.829 61.3097 242.595 61.2506 242.321 61.2506C242.05 61.2506 241.818 61.2971 241.624 61.3899C241.43 61.4786 241.267 61.6031 241.137 61.7635C241.006 61.9239 240.904 62.1118 240.833 62.3271C240.761 62.5381 240.71 62.7682 240.681 63.0172V64.2456C240.731 64.5496 240.818 64.8282 240.94 65.0814C241.063 65.3347 241.236 65.5373 241.459 65.6893C241.687 65.837 241.979 65.9109 242.333 65.9109C242.608 65.9109 242.842 65.8518 243.036 65.7336C243.23 65.6154 243.389 65.4529 243.511 65.2461C243.638 65.035 243.731 64.7923 243.79 64.5179C243.849 64.2435 243.878 63.9522 243.878 63.6441ZM248.279 64.7712L250.97 60.1489H252.496V67H250.97V62.3714L248.279 67H246.753V60.1489H248.279V64.7712ZM255.554 63.6504H257.137L255.193 67H253.617L255.554 63.6504ZM256.669 60.1489H259.607V67H258.087V61.3519H256.669C256.382 61.3519 256.145 61.4026 255.96 61.5039C255.774 61.601 255.637 61.7297 255.548 61.8902C255.459 62.0463 255.415 62.2067 255.415 62.3714C255.415 62.536 255.455 62.6943 255.535 62.8463C255.62 62.9982 255.749 63.1228 255.922 63.2199C256.099 63.3169 256.32 63.3655 256.586 63.3655H258.6V64.4799H256.586C256.164 64.4799 255.787 64.4271 255.453 64.3216C255.12 64.2119 254.837 64.062 254.605 63.872C254.372 63.6779 254.195 63.452 254.073 63.1945C253.95 62.9328 253.889 62.6479 253.889 62.3397C253.889 62.0231 253.952 61.7319 254.079 61.4659C254.206 61.2 254.387 60.9678 254.624 60.7694C254.864 60.571 255.155 60.419 255.497 60.3135C255.843 60.2038 256.234 60.1489 256.669 60.1489ZM264.482 60.1489V67H262.95V60.1489H264.482ZM266.73 60.1489V61.3519H260.74V60.1489H266.73ZM269.326 64.7712L272.017 60.1489H273.543V67H272.017V62.3714L269.326 67H267.8V60.1489H269.326V64.7712ZM276.735 64.7712L279.426 60.1489H280.952V67H279.426V62.3714L276.735 67H275.209V60.1489H276.735V64.7712ZM279.02 57.5148H280.154C280.154 57.8652 280.069 58.1754 279.9 58.4456C279.736 58.7115 279.499 58.9205 279.191 59.0725C278.887 59.2244 278.524 59.3004 278.102 59.3004C277.465 59.3004 276.96 59.1358 276.589 58.8065C276.222 58.473 276.038 58.0425 276.038 57.5148H277.171C277.171 57.7512 277.241 57.9601 277.38 58.1417C277.524 58.319 277.765 58.4076 278.102 58.4076C278.436 58.4076 278.672 58.319 278.811 58.1417C278.951 57.9601 279.02 57.7512 279.02 57.5148Z" fill="#F3F3F3"/>
<defs>
<clipPath id="clip0_46_5551">
<rect width="67" height="67" fill="white" transform="translate(6.4834)"/>
</clipPath>
<clipPath id="clip1_46_5551">
<rect width="67" height="67" fill="white" transform="translate(6.4834)"/>
</clipPath>
<clipPath id="clip2_46_5551">
<rect width="67" height="67" fill="white" transform="translate(6.4834)"/>
</clipPath>
</defs>
</svg>
