<svg width="23" height="23" viewBox="0 0 23 23" fill="none" xmlns="http://www.w3.org/2000/svg">
<rect y="0.210938" width="22.7907" height="22.7907" rx="8" fill="#2AABEE"/>
<path d="M16.4878 6.5684C16.4878 6.5684 17.79 6.06064 17.6815 7.29378C17.6453 7.80155 17.3198 9.57872 17.0666 11.501L16.1985 17.1952C16.1985 17.1952 16.1261 18.0294 15.475 18.1745C14.8239 18.3195 13.8473 17.6667 13.6664 17.5216C13.5217 17.4128 10.9536 15.7807 10.0492 14.9828C9.79602 14.7652 9.50664 14.3299 10.0854 13.8222L13.8835 10.1953C14.3175 9.76008 14.7516 8.74455 12.943 9.97769L7.87892 13.4232C7.87892 13.4232 7.30017 13.7859 6.21503 13.4595L3.86384 12.7341C3.86384 12.7341 2.99571 12.1901 4.47877 11.646C8.09597 9.9414 12.5451 8.20049 16.4878 6.5684Z" fill="white"/>
</svg>
