<svg width="24" height="25" viewBox="0 0 24 25" fill="none" xmlns="http://www.w3.org/2000/svg">
<path d="M4.93393 12.6398C4.93393 13.9738 5.30893 15.2756 6.01607 16.3952L6.18214 16.6631L5.46964 19.2666L8.14286 18.5648L8.4 18.7202C9.48214 19.3631 10.725 19.7059 11.9946 19.7059H12C15.8893 19.7059 19.1411 16.5398 19.1411 12.6452C19.1411 10.7595 18.3268 8.98627 16.9929 7.65234C15.6536 6.31306 13.8857 5.57913 12 5.57913C8.10536 5.57913 4.93929 8.7452 4.93393 12.6398ZM14.7214 16.6791C14.0464 16.7809 13.5214 16.7273 12.1768 16.1488C10.2054 15.297 8.86607 13.3898 8.59286 13.0041C8.57143 12.972 8.55536 12.9559 8.55 12.9452C8.44286 12.8059 7.68214 11.7934 7.68214 10.7488C7.68214 9.76306 8.16429 9.25413 8.38929 9.01842C8.40536 9.00234 8.41607 8.99163 8.42679 8.97556C8.61964 8.76127 8.85 8.7077 8.99464 8.7077C9.13393 8.7077 9.27857 8.7077 9.40179 8.71306H9.44464C9.56786 8.71306 9.72321 8.71306 9.87857 9.07734C9.94286 9.2327 10.0393 9.46842 10.1411 9.70949C10.3179 10.1381 10.5 10.5827 10.5321 10.6523C10.5857 10.7595 10.6232 10.8827 10.5482 11.022C10.3661 11.3863 10.1786 11.5791 10.05 11.7184C9.88393 11.8898 9.80893 11.9702 9.92679 12.1791C10.7464 13.5881 11.5661 14.0756 12.8143 14.7023C13.0286 14.8095 13.1518 14.7934 13.275 14.6488C13.3982 14.5095 13.8054 14.0273 13.9446 13.8184C14.0839 13.6041 14.2286 13.6416 14.4214 13.7113C14.6143 13.7809 15.6589 14.2952 15.8732 14.4023C15.9161 14.4238 15.9536 14.4398 15.9857 14.4559C16.1357 14.5309 16.2375 14.5791 16.2804 14.6488C16.3286 14.7506 16.3286 15.1791 16.1518 15.672C15.975 16.1702 15.1286 16.6202 14.7214 16.6791ZM24 4.14342C24 2.25234 22.4625 0.714844 20.5714 0.714844H3.42857C1.5375 0.714844 0 2.25234 0 4.14342V21.2863C0 23.1773 1.5375 24.7148 3.42857 24.7148H20.5714C22.4625 24.7148 24 23.1773 24 21.2863V4.14342ZM7.93393 20.1023L3.42857 21.2863L4.63393 16.8827C3.88929 15.597 3.49821 14.1345 3.49821 12.6345C3.50357 7.95234 7.3125 4.14342 11.9946 4.14342C14.2661 4.14342 16.3982 5.02734 18.0054 6.63449C19.6071 8.24163 20.5714 10.3738 20.5714 12.6452C20.5714 17.3273 16.6768 21.1363 11.9946 21.1363C10.5696 21.1363 9.17143 20.7773 7.93393 20.1023Z" fill="#00B97B"/>
</svg>
