<svg width="23" height="23" viewBox="0 0 23 23" fill="none" xmlns="http://www.w3.org/2000/svg">
<path d="M17.4333 0.115234H5.33672C2.38933 0.115234 0 2.50456 0 5.45195V17.5485C0 20.4959 2.38933 22.8852 5.33672 22.8852H17.4333C20.3807 22.8852 22.77 20.4959 22.77 17.5485V5.45195C22.77 2.50456 20.3807 0.115234 17.4333 0.115234Z" fill="url(#paint0_radial_83_188)"/>
<path d="M17.4333 0.115234H5.33672C2.38933 0.115234 0 2.50456 0 5.45195V17.5485C0 20.4959 2.38933 22.8852 5.33672 22.8852H17.4333C20.3807 22.8852 22.77 20.4959 22.77 17.5485V5.45195C22.77 2.50456 20.3807 0.115234 17.4333 0.115234Z" fill="url(#paint1_radial_83_188)"/>
<path d="M11.3856 2.60547C8.96999 2.60547 8.66678 2.61605 7.71808 2.65919C6.77117 2.7026 6.12481 2.85247 5.55929 3.07243C4.97421 3.2996 4.47798 3.60352 3.98363 4.09806C3.48882 4.59251 3.1849 5.08873 2.95702 5.67355C2.73644 6.23924 2.58638 6.88587 2.54378 7.83234C2.50135 8.78112 2.49023 9.08442 2.49023 11.5001C2.49023 13.9158 2.50091 14.218 2.54396 15.1667C2.58754 16.1136 2.73741 16.76 2.9572 17.3255C3.18454 17.9106 3.48847 18.4068 3.983 18.9011C4.47727 19.3959 4.9735 19.7006 5.55814 19.9277C6.1241 20.1477 6.77055 20.2976 7.71728 20.341C8.66606 20.3841 8.96901 20.3947 11.3845 20.3947C13.8003 20.3947 14.1026 20.3841 15.0513 20.341C15.9982 20.2976 16.6453 20.1477 17.2112 19.9277C17.796 19.7006 18.2915 19.3959 18.7857 18.9011C19.2805 18.4068 19.5844 17.9106 19.8123 17.3257C20.031 16.76 20.1811 16.1134 20.2256 15.1669C20.2682 14.2182 20.2793 13.9158 20.2793 11.5001C20.2793 9.08442 20.2682 8.7813 20.2256 7.83252C20.1811 6.88561 20.031 6.23933 19.8123 5.67382C19.5844 5.08873 19.2805 4.59251 18.7857 4.09806C18.291 3.60335 17.7962 3.29942 17.2107 3.07252C16.6437 2.85247 15.9969 2.70251 15.05 2.65919C14.1012 2.61605 13.7992 2.60547 11.3828 2.60547H11.3856ZM10.5876 4.20835C10.8245 4.208 11.0888 4.20835 11.3856 4.20835C13.7605 4.20835 14.0419 4.21689 14.9798 4.2595C15.847 4.29917 16.3177 4.44406 16.6312 4.56582C17.0463 4.72699 17.3422 4.91974 17.6534 5.23113C17.9647 5.54244 18.1573 5.8389 18.3189 6.254C18.4407 6.56709 18.5858 7.03779 18.6253 7.90501C18.6679 8.84267 18.6771 9.12427 18.6771 11.498C18.6771 13.8718 18.6679 14.1535 18.6253 15.0911C18.5856 15.9583 18.4407 16.429 18.3189 16.7422C18.1578 17.1573 17.9647 17.4528 17.6534 17.764C17.3421 18.0753 17.0465 18.2679 16.6312 18.4292C16.318 18.5515 15.847 18.696 14.9798 18.7357C14.0421 18.7783 13.7605 18.7876 11.3856 18.7876C9.01055 18.7876 8.72904 18.7783 7.79146 18.7357C6.92425 18.6957 6.45355 18.5508 6.13975 18.429C5.72473 18.2678 5.42819 18.0751 5.11688 17.7638C4.80557 17.4525 4.61291 17.1567 4.4513 16.7415C4.32953 16.4283 4.18446 15.9576 4.14497 15.0904C4.10237 14.1527 4.09383 13.8711 4.09383 11.4958C4.09383 9.12053 4.10237 8.84045 4.14497 7.90278C4.18464 7.03557 4.32953 6.56487 4.4513 6.25134C4.61256 5.83623 4.80557 5.53977 5.11697 5.22847C5.42836 4.91716 5.72473 4.72441 6.13984 4.56289C6.45337 4.44059 6.92425 4.29605 7.79146 4.2562C8.61198 4.21911 8.92996 4.208 10.5876 4.20613V4.20835ZM16.1335 5.6852C15.5442 5.6852 15.0661 6.16284 15.0661 6.75219C15.0661 7.34145 15.5442 7.81953 16.1335 7.81953C16.7227 7.81953 17.2008 7.34145 17.2008 6.75219C17.2008 6.16293 16.7227 5.68484 16.1335 5.68484V5.6852ZM11.3856 6.9323C8.86308 6.9323 6.81787 8.97751 6.81787 11.5001C6.81787 14.0227 8.86308 16.0669 11.3856 16.0669C13.9081 16.0669 15.9526 14.0227 15.9526 11.5001C15.9526 8.9776 13.908 6.9323 11.3854 6.9323H11.3856ZM11.3856 8.53519C13.023 8.53519 14.3505 9.86252 14.3505 11.5001C14.3505 13.1375 13.023 14.465 11.3856 14.465C9.74817 14.465 8.42075 13.1375 8.42075 11.5001C8.42075 9.86252 9.74808 8.53519 11.3856 8.53519Z" fill="white"/>
<defs>
<radialGradient id="paint0_radial_83_188" cx="0" cy="0" r="1" gradientUnits="userSpaceOnUse" gradientTransform="translate(6.04828 24.639) rotate(-90) scale(22.5668 20.9889)">
<stop stop-color="#FFDD55"/>
<stop offset="0.1" stop-color="#FFDD55"/>
<stop offset="0.5" stop-color="#FF543E"/>
<stop offset="1" stop-color="#C837AB"/>
</radialGradient>
<radialGradient id="paint1_radial_83_188" cx="0" cy="0" r="1" gradientUnits="userSpaceOnUse" gradientTransform="translate(-3.81406 1.75547) rotate(78.681) scale(10.0875 41.5809)">
<stop stop-color="#3771C8"/>
<stop offset="0.128" stop-color="#3771C8"/>
<stop offset="1" stop-color="#6600FF" stop-opacity="0"/>
</radialGradient>
</defs>
</svg>
